<svg width="128" height="35" viewBox="0 0 128 35" fill="none" xmlns="http://www.w3.org/2000/svg">
<path d="M5.60129 12.21H5.68428C6.76304 10.2842 8.63014 9.38281 10.8707 9.38281H11.9494V14.7913C11.2441 14.3406 10.4143 14.2586 9.54294 14.2586C6.38962 14.2586 5.60129 16.3073 5.60129 19.0115V25.4033H0V9.62865H5.60129V12.21Z" fill="#202B33"/>
<path d="M20.621 9.62836H14.8952V25.403H20.621V9.62836Z" fill="#202B33"/>
<path d="M30.4959 11.3899H30.5789C31.6162 9.79194 33.5248 9.0954 35.3919 9.0954C40.1634 9.0954 43.4827 13.0288 43.4827 17.5768C43.4827 22.1248 40.2049 25.9353 35.4749 25.9353C33.6493 25.9353 31.7407 25.2798 30.4959 23.8867V32.532L24.8947 34.9084V9.62805H30.4959V11.3899ZM30.33 17.5359C30.33 19.5435 31.6577 21.0595 33.9812 21.0595C36.3047 21.0595 37.6324 19.5026 37.6324 17.5359C37.6324 15.6101 36.3047 13.9712 33.9812 13.9712C31.6992 13.9712 30.33 15.5691 30.33 17.5359Z" fill="#202B33"/>
<path d="M52.1956 9.62836H46.4698V25.403H52.1956V9.62836Z" fill="#202B33"/>
<path d="M74.3103 17.5359C74.3103 22.9033 69.8293 25.9353 64.6844 25.9353C59.581 25.9353 55.0585 22.9033 55.0585 17.5359C55.0585 12.1684 59.5395 9.0954 64.6844 9.0954C69.8293 9.0954 74.3103 12.1274 74.3103 17.5359ZM61.0332 17.5359C61.0332 19.5435 62.3609 21.0595 64.6844 21.0595C67.0079 21.0595 68.3356 19.5026 68.3356 17.5359C68.3356 15.6101 67.0079 13.9712 64.6844 13.9712C62.3609 13.9712 61.0332 15.5691 61.0332 17.5359Z" fill="#202B33"/>
<path d="M20.6212 5.20358L15.0614 7.41613V2.21255L20.6212 0V5.20358Z" fill="#202B33"/>
<path d="M52.113 5.20358L46.5532 7.41613V2.21255L52.113 0V5.20358Z" fill="#202B33"/>
<path d="M125.552 9.3421H83.1482C81.8205 9.3421 80.7002 10.4074 80.7002 11.7595V23.191C80.7002 24.5021 81.779 25.6084 83.1482 25.6084H125.552C126.88 25.6084 128 24.5431 128 23.191V11.7595C128 10.4484 126.88 9.3421 125.552 9.3421ZM94.7657 21.634C94.5997 21.634 94.4752 21.5931 94.3508 21.5111C94.2678 21.4292 94.1848 21.3472 94.1433 21.2653L92.5251 18.602L90.824 21.2653C90.7825 21.3472 90.6995 21.4292 90.6166 21.4701C90.5336 21.5521 90.3676 21.5931 90.2431 21.5931H88.4175L91.2389 17.2909L88.542 13.2345H90.4921C90.6581 13.2345 90.741 13.2755 90.824 13.3165C90.907 13.3575 90.99 13.4394 91.0315 13.5214L92.6081 16.0617L94.2263 13.5623C94.3922 13.3165 94.5997 13.2345 94.7657 13.2345H96.6743L93.9358 17.2499L96.7157 21.5931H94.7657V21.634ZM98.4584 18.561C98.5828 18.8888 98.7488 19.1347 98.9148 19.3395C99.1222 19.5444 99.3297 19.7083 99.5786 19.8312C99.9935 19.9951 100.533 20.0361 100.948 19.9541C101.114 19.9541 101.238 19.9132 101.363 19.8722C101.487 19.8312 101.612 19.7902 101.695 19.7083C101.819 19.6263 101.902 19.5444 102.027 19.4625C102.068 19.4215 102.151 19.3805 102.193 19.3395C102.4 19.2576 102.649 19.2986 102.815 19.4625L103.562 20.2409L103.437 20.4048C103.105 20.8146 102.649 21.1424 102.151 21.3882C101.653 21.5931 101.031 21.716 100.367 21.716C99.7446 21.716 99.1637 21.5931 98.6658 21.3882C98.1679 21.1833 97.7115 20.8555 97.3796 20.4868C97.0062 20.118 96.7572 19.6673 96.5498 19.1347C96.3423 18.602 96.2593 18.0284 96.2593 17.4548C96.2593 16.8402 96.3838 16.2666 96.5913 15.7339C96.7987 15.2013 97.0892 14.7505 97.5041 14.3818C97.8775 14.013 98.3339 13.7262 98.8733 13.4804C99.4127 13.2755 99.9935 13.1526 100.616 13.1526C101.238 13.1526 101.778 13.2345 102.276 13.4394C102.732 13.6443 103.147 13.8901 103.479 14.2179L103.645 14.3818L103.022 15.2422C102.981 15.3242 102.939 15.3651 102.856 15.4061C102.69 15.529 102.359 15.529 102.11 15.3651C102.027 15.3242 101.944 15.2422 101.819 15.1603C101.695 15.0783 101.529 15.0374 101.363 14.9554C101.197 14.9144 100.948 14.8735 100.657 14.8735C100.325 14.8735 99.9935 14.9144 99.7031 15.0374C99.4127 15.1603 99.1637 15.3242 98.9978 15.529C98.7903 15.7339 98.6243 16.0207 98.4999 16.3075C98.3754 16.6353 98.3339 16.9631 98.3339 17.3728C98.2924 17.8645 98.3339 18.2333 98.4584 18.561ZM111.362 21.634H109.371V18.1923H106.134V21.634H104.143V13.2755H106.134V16.6763H109.371V13.2755H111.362V21.634ZM114.183 18.602C114.308 18.9298 114.474 19.1756 114.681 19.4215C114.889 19.6263 115.138 19.7902 115.428 19.9132C115.968 20.118 116.714 20.118 117.212 19.9951C117.378 19.9541 117.544 19.9132 117.752 19.8312V18.8069H117.005C116.797 18.8069 116.673 18.7249 116.59 18.643C116.507 18.561 116.424 18.3972 116.424 18.2742V17.2089H119.577V20.7736L119.494 20.8555C119.287 21.0194 119.038 21.1424 118.83 21.2653C118.582 21.3882 118.333 21.4701 118.084 21.5521C117.835 21.634 117.544 21.675 117.254 21.716C116.963 21.7569 116.631 21.7569 116.3 21.7569C115.677 21.7569 115.096 21.634 114.598 21.4292C114.101 21.2243 113.644 20.9375 113.229 20.5278C112.856 20.159 112.565 19.7083 112.358 19.1756C112.15 18.643 112.026 18.0694 112.026 17.4548C112.026 16.8402 112.15 16.2666 112.316 15.7339C112.524 15.2013 112.814 14.7505 113.188 14.3818C113.561 14.013 114.018 13.7262 114.598 13.4804C115.138 13.2755 115.76 13.1526 116.424 13.1526C117.088 13.1526 117.71 13.2345 118.208 13.4394C118.706 13.6443 119.162 13.8901 119.494 14.2179L119.66 14.3408L119.121 15.1603C118.955 15.4061 118.747 15.4881 118.582 15.4881C118.457 15.4881 118.291 15.4471 118.167 15.3651C118.042 15.2832 117.959 15.2422 117.835 15.1603C117.71 15.0783 117.586 15.0374 117.461 14.9964C117.337 14.9554 117.171 14.9144 117.005 14.8735C116.839 14.8325 116.631 14.8325 116.424 14.8325C116.051 14.8325 115.719 14.8735 115.47 14.9964C115.179 15.1193 114.93 15.2832 114.764 15.4881C114.557 15.6929 114.391 15.9797 114.308 16.2666C114.183 16.5943 114.142 16.9221 114.142 17.3319C114.018 17.8645 114.059 18.2742 114.183 18.602Z" fill="#202B33"/>
</svg>
