<svg xmlns="http://www.w3.org/2000/svg" viewBox="0 0 37 37"><defs><style>.cls-1{fill:none;}.cls-2{fill:#fff;}</style></defs><title>solid_btc</title><g id="Capa_2" data-name="Capa 2"><g id="Capa_1-2" data-name="Capa 1"><rect class="cls-1" width="37" height="37"/><path class="cls-2" d="M28.18,19.22a5.21,5.21,0,0,0-3.06-1.8,4.16,4.16,0,0,0,2.29-4.51,4.5,4.5,0,0,0-.64-2,4,4,0,0,0-1.44-1.36,7.81,7.81,0,0,0-2-.79,15.4,15.4,0,0,0-2.44-.39V4H18.22V8.25l-2.13,0V4H13.4V8.37H8v2.86H9.94a1.39,1.39,0,0,1,1.55,1.19V24.48a.93.93,0,0,1-1,.89H8.54L8,28.56h5.4V33h2.69V28.63l2.13,0V33h2.69V28.58a21.47,21.47,0,0,0,2.54-.26,10.55,10.55,0,0,0,2.12-.6,5.88,5.88,0,0,0,1.7-1,4.65,4.65,0,0,0,1.12-1.55A6.52,6.52,0,0,0,29,23,5.2,5.2,0,0,0,28.18,19.22Zm-12-7.8h.69l.94,0c.25,0,.59,0,1,0a10.5,10.5,0,0,1,1.07.14,6.74,6.74,0,0,1,1,.29,2.59,2.59,0,0,1,.84.49,2.37,2.37,0,0,1,.53.73,2.25,2.25,0,0,1,.22,1,2.36,2.36,0,0,1-.16.9,1.67,1.67,0,0,1-.47.67,4.11,4.11,0,0,1-.65.47,3,3,0,0,1-.84.32l-.9.2q-.39.06-1,.09l-.88,0H16.14V11.42Zm7.34,11.9a2.55,2.55,0,0,1-.42.7,2.5,2.5,0,0,1-.69.52,5.32,5.32,0,0,1-.83.37,7.11,7.11,0,0,1-1,.25,9.14,9.14,0,0,1-1,.14c-.28,0-.62.06-1,.07l-.93,0H16.14v-5.9l.83,0,1.12,0c.3,0,.7,0,1.21.06a9.59,9.59,0,0,1,1.29.15,8.27,8.27,0,0,1,1.15.33,3.13,3.13,0,0,1,1,.53,2.72,2.72,0,0,1,.65.8,2.4,2.4,0,0,1,.26,1.12A2.14,2.14,0,0,1,23.48,23.32Z"/></g></g></svg>