<svg xmlns="http://www.w3.org/2000/svg" viewBox="0 0 37 37"><defs><style>.cls-1{fill:#fff;}.cls-2{fill:none;}</style></defs><title>solid_fiat</title><g id="Capa_2" data-name="Capa 2"><g id="Capa_1-2" data-name="Capa 1"><path class="cls-1" d="M16.69,32.2V30l-.17,0a9.33,9.33,0,0,1-4.43-1.72,6.13,6.13,0,0,1-2.35-4.9h3.92a4.12,4.12,0,0,0,.87,2.08,3.81,3.81,0,0,0,1.91,1.14l.25.07v-6.3l-.15,0a13.16,13.16,0,0,1-4.34-1.55,5.13,5.13,0,0,1-2.12-4.53,6.08,6.08,0,0,1,2.08-4.71,7.75,7.75,0,0,1,4.36-1.76l.17,0V4.8h3.62v3l.16,0a8.65,8.65,0,0,1,3.65,1.55,6.17,6.17,0,0,1,2.45,4.84h-4a3.15,3.15,0,0,0-1.73-2.64v-.07l-.26-.06-.34-.35,0,.49v5.65l1.45.31a10.14,10.14,0,0,1,3.65,1.55,5.11,5.11,0,0,1,1.85,4.25,6.16,6.16,0,0,1-2.19,4.82A8.88,8.88,0,0,1,20.48,30l-.17,0V32.2Zm3.62-5.56.23,0a3.29,3.29,0,0,0,.72-.18,2.69,2.69,0,0,0,2-2.67,2.13,2.13,0,0,0-1.06-1.87,8.59,8.59,0,0,0-1.68-.7l-.26-.08ZM16.44,11.13a5.75,5.75,0,0,0-1.41.59,2.41,2.41,0,0,0-1.17,2.15A2,2,0,0,0,15,15.79a7.45,7.45,0,0,0,1.4.53l.25.07V11.06Z"/><rect class="cls-2" width="37" height="37"/></g></g></svg>